/* XPM */
static const char *_2_64[] = {
/* columns rows colors chars-per-pixel */
"64 64 2 1 ",
"  c Black",
". c white",
/* pixels */
"................................................................",
"................................................................",
"................................................................",
"................................................................",
"................................................................",
"................................................................",
"................................................................",
"................................................................",
"................................................................",
"................................................................",
"........................          ......          .           ..",
".......................           ......         ..           ..",
"......................           .......        ...           ..",
".....................           ........       ....           ..",
"....................           .........      .....           ..",
"...................           ..........     ......           ..",
"..................           ...........    .......           ..",
".................           ............   ........           ..",
"................           .............  .........           ..",
"...............           .............. ..........           ..",
"..............           ..........................           ..",
".............           ..........................           ...",
"............           ..........................           ....",
"...........           ..........................           .....",
"..........           ..........................           ......",
".........           ..........................           .......",
"........           ..........................           ........",
".......           ..........................           .........",
"......           ..........................           ..........",
".....           ..........................           ...........",
"....           ..........................           ............",
"...           ..........................           .............",
"..                                 .....           .............",
"..                                 .....           .........  ..",
"..                                 .....           ........   ..",
"..                                 .....           .......    ..",
"..                                 .....           ......     ..",
"..                                 .....           .....      ..",
"..                                 .....           ....       ..",
"..                                 .....           ...        ..",
"..                                 .....           ..         ..",
"........................           .....           .          ..",
"........................           .....                      ..",
"........................           .............................",
"........................           .............................",
"........................           .............................",
"........................           .............................",
"........................           .............................",
"........................           .............................",
"........................           .............................",
"........................           .............................",
"........................           .............................",
"................................................................",
"................................................................",
"................................................................",
"................................................................",
"................................................................",
"................................................................",
"................................................................",
"................................................................",
"................................................................",
"................................................................",
"................................................................",
"................................................................"
};
