/* XPM */
static const char *billet_64[] = {
/* columns rows colors chars-per-pixel */
"64 64 244 2 ",
"   c #763E19",
".  c #7E441C",
"X  c #7A4826",
"o  c #8A4B17",
"O  c #8C5919",
"+  c #95541A",
"@  c #9B5B1C",
"#  c #985618",
"$  c #974E1C",
"%  c #A2531E",
"&  c #A55A19",
"*  c #B1571D",
"=  c #8E611A",
"-  c #9B6B1A",
";  c #96661A",
":  c #9E701D",
">  c #A76819",
",  c #A2721C",
"<  c #A97019",
"1  c #894C24",
"2  c #955323",
"3  c #9C5524",
"4  c #955A23",
"5  c #9C5C22",
"6  c #94552B",
"7  c #9C5B2B",
"8  c #97592C",
"9  c #9B5E33",
"0  c #975B33",
"q  c #8B552E",
"w  c #A25622",
"e  c #A55B24",
"r  c #AC5B24",
"t  c #A35D2C",
"y  c #AB5E29",
"u  c #AA5621",
"i  c #B05C24",
"p  c #A15E31",
"a  c #9C6325",
"s  c #9B6D24",
"d  c #9B632A",
"f  c #9C6B2A",
"g  c #966725",
"h  c #9D7123",
"j  c #9E712B",
"k  c #9D6234",
"l  c #9E653A",
"z  c #9C6A37",
"x  c #9D7238",
"c  c #88623E",
"v  c #A26225",
"b  c #A3632C",
"n  c #AA632D",
"m  c #A26B2C",
"M  c #A86B28",
"N  c #B3642D",
"B  c #B5672E",
"V  c #A27423",
"C  c #AA7C24",
"Z  c #A2752B",
"A  c #A5792B",
"S  c #AA7D2C",
"D  c #A87725",
"F  c #B2782E",
"G  c #A36434",
"H  c #AB6433",
"J  c #A36B34",
"K  c #AD6B33",
"L  c #A3653A",
"P  c #A46B3C",
"I  c #AB6B3B",
"U  c #B36632",
"Y  c #B36B35",
"T  c #B66C38",
"R  c #A47534",
"E  c #A57933",
"W  c #AA7C34",
"Q  c #A8783B",
"!  c #B5733B",
"~  c #B67837",
"^  c #C07F36",
"/  c #98704B",
"(  c #9C6F47",
")  c #A46C43",
"_  c #AA6D42",
"`  c #A26741",
"'  c #AC7244",
"]  c #A5724A",
"[  c #AD7A4C",
"{  c #AA7647",
"}  c #B37444",
"|  c #B3764A",
" . c #B47B4C",
".. c #B77946",
"X. c #AB7D52",
"o. c #A87D57",
"O. c #B47E51",
"+. c #BA7E51",
"@. c #C57C44",
"#. c #AE8138",
"$. c #B28534",
"%. c #B3843A",
"&. c #B8893A",
"*. c #B3832E",
"=. c #AE8241",
"-. c #BA8547",
";. c #AB8154",
":. c #A58459",
">. c #AC835B",
",. c #AA8B5D",
"<. c #A58458",
"1. c #B38459",
"2. c #B48A5B",
"3. c #BA8A5C",
"4. c #B88554",
"5. c #AF8C61",
"6. c #AB8864",
"7. c #B38C63",
"8. c #B58C64",
"9. c #AE9162",
"0. c #B39364",
"q. c #BC9364",
"w. c #BC9569",
"e. c #BB9A6C",
"r. c #B7976B",
"t. c #BB9A71",
"y. c #BEA274",
"u. c #C48549",
"i. c #C89449",
"p. c #C48B59",
"a. c #C9925B",
"s. c #D19259",
"d. c #D6A35C",
"f. c #C39B6B",
"g. c #CD9B6A",
"h. c #C99664",
"j. c #C19C71",
"k. c #D39D68",
"l. c #C3A375",
"z. c #CBA274",
"x. c #C4A67A",
"c. c #C6A97A",
"v. c #CAAB7C",
"b. c #C9A67A",
"n. c #D1A67C",
"m. c #D3A97D",
"M. c #D6A779",
"N. c #D8B47C",
"B. c #CEA671",
"V. c #E3BA70",
"C. c #EBC67D",
"Z. c #FADB7C",
"A. c #F8D676",
"S. c #F5D16F",
"D. c #BEA482",
"F. c #CAAE82",
"G. c #C4A781",
"H. c #D5AC83",
"J. c #D7AD86",
"K. c #CEB283",
"L. c #CFB289",
"P. c #DAB384",
"I. c #D4B38B",
"U. c #DAB38C",
"Y. c #DBBB8C",
"T. c #D5B989",
"R. c #DAB591",
"E. c #DCBA94",
"W. c #DDBC9B",
"Q. c #D6B992",
"!. c #CAB497",
"~. c #E2BD88",
"^. c #E2BE9B",
"/. c #E4BB96",
"(. c #E3AC84",
"). c #D6BDA1",
"_. c #E0BFA0",
"`. c #DDC29C",
"'. c #DEC394",
"]. c #E9C688",
"[. c #FADB85",
"{. c #FADD8B",
"}. c #F5D687",
"|. c #E4C395",
" X c #EACB93",
".X c #E2C39D",
"XX c #EACC9B",
"oX c #E8C69C",
"OX c #F3D59C",
"+X c #F4DA9C",
"@X c #F5D995",
"#X c #F0CD93",
"$X c #FBE198",
"%X c #D9C3A8",
"&X c #D5C5B2",
"*X c #E3C3A3",
"=X c #E4CAA3",
"-X c #EBCDA4",
";X c #E4CAAA",
":X c #EACBAC",
">X c #E8C5A6",
",X c #F1CBA8",
"<X c #ECD3A5",
"1X c #EBD2AB",
"2X c #ECD5AE",
"3X c #F3DBA4",
"4X c #F3D8A9",
"5X c #E8CEB2",
"6X c #F1CEB2",
"7X c #EBD4B2",
"8X c #EED9B3",
"9X c #EDD6BC",
"0X c #EEDABA",
"qX c #E4D1B7",
"wX c #F1D2B6",
"eX c #F2D5BA",
"rX c #F2DDBC",
"tX c #F1DBB5",
"yX c #F5E2BB",
"uX c #F8E2AF",
"iX c #ECDBC3",
"pX c #E7D9C9",
"aX c #F4DBC3",
"sX c #F3DEC8",
"dX c #E9DFD3",
"fX c #F5E3C4",
"gX c #F5E4CC",
"hX c #F8E8CC",
"jX c #F9E9D5",
"kX c #F4E9DC",
"lX c #F9ECDC",
"zX c #F5E5D3",
"xX c #EEE3D5",
"cX c #F6EDE3",
"vX c #F9EFE6",
"bX c #F9EFE4",
"nX c #F9F1E7",
"mX c #F9F1E6",
"MX c #F9F0E6",
"NX c #F9F2E8",
"BX c #F9F1E8",
"VX c #F7F0E6",
"CX c None",
"ZX c black",
/* pixels */
"CXCXCXCXCXCXCXCXCXCXCXCXCXCXCXCXCXCXCXCXCXCXCXCXCXCXCXCXCXCXCXCXCXCXCXCXCXCXCXCXCXCXCXCXCXCXCXCXCXCXCXCXCXCXCXCXCXCXCXCXCXCXCXCX",
"CXCXCXCXCXCXCXCXCXCXCXCXCXCXCXCXCXCXCXCXCXCXCXCXCXCXCXCXCXCXCXCXCXCXCXCXCXCXCXCXCXCXCXCXCXCXCXCXCXCXCXCXCXCXCXCXCXCXCXCXCXCXCXCX",
"CXCXCXCXCXCXCXCXCXCXCXCXCXCXCXCXCXmXVXVXCXCXCXCXCXCXCXCXCXCXCXCXCXCXCXCXCXCXCXCXCXCXCXCXCXCXCXCXCXCXCXCXCXCXCXCXCXCXCXCXCXCXCXCX",
"CXCXCXCXCXCXCXCXCXCXCXCXCXCXCXNXmXpX%X&XxXkXkXCXCXCXCXCXCXCXCXCXCXCXCXCXCXCXCXCXCXCXCXCXCXCXCXCXCXCXCXCXCXCXCXCXCXCXCXCXCXCXCXCX",
"CXCXCXCXCXCXCXCXCXCXCXCXCXCXNXmXkX!.%X!.).).pXcXmXsX:X6XCXCXCXCXCXCXCXCXCXCXCXCXCXCXCXCXCXCXCXCXCXCXCXCXCXCXCXCXCXCXCXCXCXCXCXCX",
"CXCXCXCXCXCXCXCXCXCXCXCXCXcXvXmXcXdXpXpX&X).kXcXzX:X*X*X:X9XeXeXeXCXCXCXCXCXCXCXCXCXCXCXCXCXCXCXCXCXCXCXCXCXCXCXCXCXCXCXCXCXCXCX",
"CXCXCXCXCXCXCXCXCXCXCXCXcXvXmXmXmXmXNXcXkXkXvXzX9X*XE.R.^.:X:X:X:X-X-XXX X#XOX+XCXCXCXCXCXCXCXCXCXCXCXCXCXCXCXCXCXCXCXCXCXCXCXCX",
"CXCXCXCXCXCXCXCXCXCXCXmXvXmXNXmXmXvXmXmXmXmXsX*X^.J.H.m.U.E..X-X2X-X|.~.~.oXXXXXXXXX<X3XCXCXCXCXCXCXCXCXCXCXCXCXCXCXCXCXCXCXCXCX",
"CXCXCXCXCXCXCXCXCXCXNXNXmXmXmXNXvXvXvXmXvXsXE.J.U.J.n.n.z.m.H.H.H.P.P.g.B.].+X+X<X1XoXXXXX].].].}.CXCXCXCXCXCXCXCXCXCXCXCXCXCXCX",
"CXCXCXCXCXCXCXCXCXNXmXmXNXNXNXNXvXvXvXvXiXR.H.J.U.E.P.m.m.H.H.J.P.XXXX].#X+X3X3X0XfX4X<X<X|.m.M.N.N.N.].OXCXCXCXCXCXCXCXCXCXCXCX",
"CXCXCXCXCXCXCXNXNXNXmXmXNXNXNXmXvXmXvXiXE.J.U./.*X^.E./.-X<XY.~.XX3X3X3X3X+X3X4X1X=XXX<X1X1X;X%XW.E.J.m..XoX.X*X6X>XoX*XgXmXCXCX",
"CXCXCXCXCXCXNXNXNXmXmXNXNXNXNXmXmXbXaX^.E.E./.^./.U.E.1X3X X~. XXX4X3X3X3X+X@X+XyXyX+X@X<X5XqXqXqXqXqX;X:XU.5XU..XR..X:XjXjXCXCX",
"CXCXCXCXmXlXlXlXlXmXvXmXNXNXvXNXlXaX6X*XU.U.U.P.U.:X2X4X+XOX<X;X.X|.XX3X{.[.{.{.$X$X$X{.@X2X0X0X9XqXqXiXiX;X;X;X:XW.R.9XlXfXCXCX",
"CXCXCXmXrX6XaXeXgXmXcXcXcXvXmXlXaXrXaXeX*XR.J.z.n.^..X|.|.=X:X*X*XE.W.].Z.{.{.{.{.$XuXuX{.Z.Z.A.[.4X0XiXiXiXiXiX9XqX7XgXjXfXCXCX",
"CXCXCXgXgXzXjXaXlXvXkXdXdXxXxX9X6X6X>X^.U.n.g.z.U.E.W.^.R.E.E.E.R.W.;X].Z.{.{.{.{.{.+X+X[.Z.A.Z.S.A.3XeXeX9X0XiXzXgX9XjXgXfXCXCX",
"CXCXCX<X|.|.7XgXlXmXNXcXkXiX%X).W.).%XW.E.U.H.R.^.U.R.W.;X;X.XW.W.W.`. X[.[.[.[.{.[.[.[.[.Z.[.uX{.A.OXaXgXaXwXeXeXwXaXlXfXfXCXCX",
"CXCXCX2XN.g.l.c.L.%XiXzXaX6X:X:X;X*X%X).%X:X*X*XE.R.R.U. X@X#X|..XW.E.W. X@X{.{.{.{.[.Z.Z.A.A.Z.Z.}.-X6XeXwXwXwXwXwXzXjXfXyXCXCX",
"CXCXCX<XB.-.4.2.0.r.e.x.h.h.J./.>X6XwX6X:X*X`..XR.I.U.I.H.P.#X@XOX X|.|..XoXXX@X[.Z.Z.A.C.C.V.S.C.#X:X^.^.E.*X:X6XeXlXgXyXyXCXCX",
"CXCXCX'.N.f.3.1.O.X.1.7.X.t t H ..p.g.M./. X].].C.].].~.m.n.m.~.#X+X+X+X<X-XoX;X-X X].P.U.n.g.k.Y.*X.X_.*X*X:X>X,XsXlXfXrXfXCXCX",
"CXCXCXCXT.c.c.c.f.2.{ ' Q b d t 7 t n H F F M v *.&.i.V.].].P.m.J.U.Y. XoXXXXX|.E.R.I.I.n.h.h.n.E.E.E.E.R.W.;X:XwXjXjXfXrXhXCXCX",
"CXCXCXCX|.z.w.e.y.y.e.q.O.G b b v b G G b M > # O ; > < F i.N. X XY.I.H.n.H.H.J.J.U.I.H.g.h.g.R.E.J.U.E.E.^.W._.sXlXhXrXrXgXCXCX",
"CXCXCXCXY.v.b.f.e.e.r.e.w.' L l G b d b J m a O O O ; - < < D F -.h.N.].].~.P.H.J.J.I.I.M.g.H.*XW.n.H.U.W.*X*X5XjXlXfXtXrXfXCXCX",
"CXCXCXCXY.f.f.l.c.l.q.2.2.P k l ` _ I G b d m s ; = O ; - - - - @ @ v ~ i.d.V.C.].].~.U.U.R.*X*XR.H.H.H.H.U.*XaXlXjXrX7XyXhXCXCX",
"CXCXCXCXI.q.1.3.q.f.f.f.w.} t G G P ' ' ' I J Z Z h s ; ; ; ; ; @ + @ @ & & > ~ i.d.V.C.]./.E.U.H.H.R.E.U.J.W.gXlXzX7XtXfXCXCXCX",
"CXCXCXCX%Xv.7.1.1.1.! T 4...H H G G G P ) Q Q R Z Z V Z - = = g + + o + + # # # & & > ^ d.~.oXoX/.U.W.E.W.E.*XlXlXaX2X0XgXCXCXCX",
"CXCXCXCXCXI.x.t.7.,.I i i r i N H I G G G J J f s h h Z A j f g 5 5 6 1 o o o o + + + + 3 H u.M./.,X,XoX/./.6XbXjX7X2XrXhXCXCXCX",
"CXCXCXCXCXI.c.l.l.e.2.U r r u r i y H H G G b f s s s s h Z Z s v 3 3 3 8 6 1 .   . o 2 2 2 2 8 I +.g.M.(.(.^.7X1X1X8XrXjXCXCXCX",
"CXCXCXCXCXI.c.l.y.y.y.q.4.I t t r r i r n n M V - : V V h h s s f m d 5 3 3 3 7 6 1     1 1 2 p G H H I } ..p.M.oX1X0XyXCXCXCXCX",
"CXCXCXCXCXL.v.x.y.y.y.y.e.X.G G t w e r r r v D V - - : , , Z s g a d a f f a 3 3 3 t ] / q X X 0 G n U ! @.u.k.'.1XrXfXCXCXCXCX",
"CXCXCXCXCXQ.x.l.x.y.y.y.t.7.L G G G b t w e M C C D V V , - , D m b b d d a a a a d 5 G { X.o./ c c k H i B @.J.;X2XrXhXCXCXCXCX",
"CXCXCXCX5X`.I.v.y.e.r.e.y.w.' I P P L G G b d V C C C C V V : : a a b M b a 5 4 4 8 d d G t I 7.9.6./ ( I Y u.E.:X8XrXCXCXCXCXCX",
"CXCXCXCXQ.l.x.K.K.F.y.e.e.w.' P _ _ _ P P J f j Z Z V , , , V m d 5 # # @ & e v 5 4 2 6 7 7 G { >.8.r.r.8.3.g.`.1XtXfXCXCXCXCXCX",
"CXCXCXCXI.1.X.7.t.x.l.l.l.e.) ` ` _ _ _ { ' R j f j j j j s f m J J J b @ + # # & e b G 7 2 2 9 l l ] >.r.j.b.I.<XtXfXCXCXCXCXCX",
"CXCXCXCX=Xp._ ' { ;.O...3.3.' ) ) ) ) _ ' ' Q W Z Z h h h f f x J P L L J G v # o o + b I I G k 0 0 0 0 G I h.Q.1XrXfXCXCXCXCXCX",
"CXCXCXCX1Xg.| _ _ _ P I ' _ I _ ' ) ) ) ) P P A Z D D V V V j x P P P l l L G b v # o o o 7 I  .[ ) k 8 8 t ...X0XyXCXCXCXCXCXCX",
"CXCXCXCX|.n.g.p.+.| _ L k k d G I I _ ' ' ) P Q Q E S A Z D A j z z P P k k 9 k 9 7 b G 7 $ o 6 P [ ;.[ ) 9 I K.8XfXCXCXCXCXCXCX",
"CXCXCXCX'.T.v.z.h.a.p.| I J d g d k P I ' { { Q x Q E W S A C Z b d d k k k 9 8 0 9 ] X.) P G 9 6 6 k { 1.3.f.K.1XfXCXCXCXCXCXCX",
"CXCXCXCXCXT.K.K.v.f.p.u.-.-.~ m a d d k G I { =.Q x x E W S C D b v a 5 5 4 8 0 8 6 ] 0.0.,.;.;.[ ' 7 2 6 G p.oXrXCXCXCXCXCXCXCX",
"CXCXCXCXCXY.K.K.v.v.c.f.3.! ~ &.~ Z f d d d f E E W E Z Z A S D v e v a v @ @ 4 6 2 l <.,.0.r.0.5.2.2.4.I e ! T.0XCXCXCXCXCXCXCX",
"CXCXCXCXCXE.K.K.K.K.v.v.l.| I K Y ~ %.W R z f f g s Z A S S A m t e u u v v @ @ 4 4 z ,.9.,.,.0.r.r.e.j.z.z.N.|.rXCXCXCXCXCXCXCX",
"CXCXCXCXCXT.z.l.x.v.F.v.l.O.| | ' I Y ~ ~ ~ R j s s s Z S S A v w 3 w e u u e v a 4 7 z X.5.9.,.,.5.0.e.x.E.1X0XfXCXCXCXCXCXCXCX",
"CXCXCXCXCXY.q.q.f.l.b.F.F.3.|  .O.+.| ' K K F *.*.S j = = g A K n u % $ w u u u e b t 3 7 P o.9.0.,.,.0.w.l.`.rXCXCXCXCXCXCXCXCX",
"CXCXCXCXCX1Xv.w.q.w.p.a.z.3.+.+.| |  . .| } Q Z D C C V ; = = d b b n e % $ w r & % e y t p l ` X.0.r.0.0.e.F.0XCXCXCXCXCXCXCXCX",
"CXCXCXCXCX0X`.U.b.t.4.T ! } ....O.O. .| [ { W #.S Z Z V V h s g 8 8 b H v w $ 3 w % & u r K P L l P X.q.y.c.Q.0XCXCXCXCXCXCXCXCX",
"CXCXCXCXCXCXCXCXE.I.z.+.Y B Y ! ....+.O. ...Q E #.&.$.A Z j A E J l k 9 G G t t % $ % * * H [ ' L G 9 L 1.c.;XCXCXCXCXCXCXCXCXCX",
"CXCXCXCXCXCXCXCXCXCXCXh.p.} H N B T ! ......%.=.Q E &.&.$.A m J J P P l 0 0 9 7 t y w % * T [ [ ' I G t } l.=XCXCXCXCXCXCXCXCXCX",
"CXCXCXCXCXCXCXCXCXCXCXCXCX! ! ! K N B Y T ~ %.%.-.=.W #.$.&.K n G G G L L 0 6 6 7 I I y u P X.[ [ ' I H 4.v.1XCXCXCXCXCXCXCXCXCX",
"CXCXCXCXCXCXCXCXCXCXCXCXCXCXCXCX..} I H U F %.#.$.&.-.%.#.S H B U n v G G 9 0 6 6 ] { I I [ ] ] { [ ' I q.`.0XCXCXCXCXCXCXCXCXCX",
"CXCXCXCXCXCXCXCXCXCXCXCXCXCXCXCXCXCX..} I J *.$.%.%.$.&.-.%.n n N Y B N n b 0 6 6 ( <.;.;.>.X.[ ] ) { [ e.=XCXCXCXCXCXCXCXCXCXCX",
"CXCXCXCXCXCXCXCXCXCXCXCXCXCXCXCXCXCXCXCX-. .%.$.$.%.$.$.$.W Y Y n y N U B N b 9 l <.,.:.:.<.<.X.X.[ ) [ e.`.CXCXCXCXCXCXCXCXCXCX",
"CXCXCXCXCXCXCXCXCXCXCXCXCXCXCXCXCXCXCXCXCXCXCX%.%.%.#.W #.W U N Y Y H e r N B N G ) o.,.,.<.<.>.o.;.X.1.e.Q.CXCXCXCXCXCXCXCXCXCX",
"CXCXCXCXCXCXCXCXCXCXCXCXCXCXCXCXCXCXCXCXCXCXCXCXCX&.%.W Q { } Y N N Y T H y e y N N H ` o.,.,.:.<.<.>.e.Q.;XCXCXCXCXCXCXCXCXCXCX",
"CXCXCXCXCXCXCXCXCXCXCXCXCXCXCXCXCXCXCXCXCXCXCXCXCXCXCX&.W Q _ ' _ U i r U T I t r r N } o.] X.>.,.:.<.9.I.CXCXCXCXCXCXCXCXCXCXCX",
"CXCXCXCXCXCXCXCXCXCXCXCXCXCXCXCXCXCXCXCXCXCXCXCXCXCXCXCXCX-.~ I _ ) _ H r r y Y K y u X.8.r.5.X.] o.5.0.F.CXCXCXCXCXCXCXCXCXCXCX",
"CXCXCXCXCXCXCXCXCXCXCXCXCXCXCXCXCXCXCXCXCXCXCXCXCXCXCXCXCXCXCXu.~ T I ` P n r u y U I >.o.>.7.r.8.X.,.G.CXCXCXCXCXCXCXCXCXCXCXCX",
"CXCXCXCXCXCXCXCXCXCXCXCXCXCXCXCXCXCXCXCXCXCXCXCXCXCXCXCXCXCXCXCXCXi.&.! P ` ) } N u H 7.7.>.o.o.6.t.G.!.CXCXCXCXCXCXCXCXCXCXCXCX",
"CXCXCXCXCXCXCXCXCXCXCXCXCXCXCXCXCXCXCXCXCXCXCXCXCXCXCXCXCXCXCXCXCXCXCXi.u.! ' 2.2.} ' >.>.5.7.>.o.7.x.;XCXCXCXCXCXCXCXCXCXCXCXCX",
"CXCXCXCXCXCXCXCXCXCXCXCXCXCXCXCXCXCXCXCXCXCXCXCXCXCXCXCXCXCXCXCXCXCXCXCXCXs.u.u.4.7.7.,.>.o.1.7.7.e.L.0XCXCXCXCXCXCXCXCXCXCXCXCX",
"CXCXCXCXCXCXCXCXCXCXCXCXCXCXCXCXCXCXCXCXCXCXCXCXCXCXCXCXCXCXCXCXCXCXCXCXCXCXCXs.s.p.3.7.5.>.X.o.8.G.`.CXCXCXCXCXCXCXCXCXCXCXCXCX",
"CXCXCXCXCXCXCXCXCXCXCXCXCXCXCXCXCXCXCXCXCXCXCXCXCXCXCXCXCXCXCXCXCXCXCXCXCXCXCXCXCXk.k.a.3.2.5.>.7.L.7XCXCXCXCXCXCXCXCXCXCXCXCXCX",
"CXCXCXCXCXCXCXCXCXCXCXCXCXCXCXCXCXCXCXCXCXCXCXCXCXCXCXCXCXCXCXCXCXCXCXCXCXCXCXCXCXCXCXCXs.p.4.q.0.y.;XCXCXCXCXCXCXCXCXCXCXCXCXCX",
"CXCXCXCXCXCXCXCXCXCXCXCXCXCXCXCXCXCXCXCXCXCXCXCXCXCXCXCXCXCXCXCXCXCXCXCXCXCXCXCXCXCXCXCXCXCXk.E.F.D.CXCXCXCXCXCXCXCXCXCXCXCXCXCX",
"CXCXCXCXCXCXCXCXCXCXCXCXCXCXCXCXCXCXCXCXCXCXCXCXCXCXCXCXCXCXCXCXCXCXCXCXCXCXCXCXCXCXCXCXCXCXCXCXCXCXCXCXCXCXCXCXCXCXCXCXCXCXCXCX",
"CXCXCXCXCXCXCXCXCXCXCXCXCXCXCXCXCXCXCXCXCXCXCXCXCXCXCXCXCXCXCXCXCXCXCXCXCXCXCXCXCXCXCXCXCXCXCXCXCXCXCXCXCXCXCXCXCXCXCXCXCXCXCXCX"
};
