/* XPM */
static const char *floor_64[] = {
/* columns rows colors chars-per-pixel */
"64 64 55 1 ",
"  c white",
". c white",
"X c white",
"o c white",
"O c #EDEDE7",
"+ c #EDEDE8",
"@ c #EEEDE8",
"# c #EDEEE8",
"$ c #EEEEE8",
"% c #EFEEE8",
"& c #EFEFE8",
"* c #EEEEE9",
"= c #EFEEE9",
"- c #EFEFE9",
"; c #EFEFEA",
": c #F0EFE9",
"> c #F0EFEA",
", c #F0F0E9",
"< c #F1F0E9",
"1 c #F0F1E9",
"2 c #F0F0EA",
"3 c #F1F0EA",
"4 c #F0F1EA",
"5 c #F1F1EA",
"6 c #F0F0EB",
"7 c #F1F0EB",
"8 c #F1F1EB",
"9 c #F2F1EA",
"0 c #F2F1EB",
"q c #F1F2EA",
"w c #F2F2EA",
"e c #F2F2EB",
"r c #F3F2EB",
"t c #F2F3EB",
"y c #F3F3EB",
"u c #F4F4EB",
"i c #F1F1EC",
"p c #F2F1EC",
"a c #F2F2EC",
"s c #F3F2EC",
"d c #F3F3EC",
"f c #F3F2ED",
"g c #F3F3ED",
"h c #F4F3EC",
"j c #F4F3ED",
"k c #F4F4EC",
"l c #F5F4EC",
"z c #F5F5EC",
"x c #F4F4ED",
"c c #F5F4ED",
"v c #F5F5ED",
"b c #F6F5ED",
"n c #F6F6ED",
"m c #F5F4EE",
"M c #F5F5EE",
/* pixels */
"dcedde==eeeeeedcce=>=ddeee==ddddee=eeeeeed===ee>eeee>eeddX===eee",
"eeedeeeeeeeedd=eee>e=d>e>>==eddd=eeeeeedeee==edeeeedeee>dXX==eed",
"cceeeeee>>>eedeeddee>ee=ee=eddee=eeeeedcde>==ee>eddcdd>ee==>=eed",
"djddeee>===eedddedee>ee=ee=>edee=eeeedecdd===>eeeddcde=>e==eee=X",
"cdddeee====eededeee>>e=>eeXe>eee==e=eedcjje==>eeeeeeedede==eedX ",
"ddeeeee=>e==ddedddee>e=eee.e>=ee===>eedcddee=>eeeedddeede=>====X",
"ddee=ee=ee=>eedddedeee>eee=e==eeX==eeeeeddee=eeddeddddede===eeee",
"eddd>ee===.edddddeeeee=eee=>>e=eX=>eeeeeddde=ddeeededeede=>eeeee",
"eddd>edeee=ededdeee=ee=eeee=ee=e==>eeeeeeeee=>=eeedeedeed====eee",
"eedde=e==e=eeedeeeeeeeee=e===>ee=>eeeeeeedee==>eddeeeeeee=>>eeee",
"de>ee=e==e=>eeeee>ee>eeeeee>==ee=eeeddedddde==eeedeee>eee==>=ee=",
"eeede>e==e===eee>eee>>=e==e>=eee=>=eee=ejdde=eee>eeeededd==>eee=",
"dddee====eeeedeeeeee=>=ee=>e==ee==>deeeccdeeeeee>ede=e>de====eed",
"dedee====eeeeedeee=e=>==e>eee=eeXX===ee=eee==eeeeeedeeedd====ede",
"e=>de====eeeeeeedd>=====>eeee>=e==e==>e=eeee=e==ededdeedd====eed",
"eeedee====e>eeeedee>eeeeeeeeee=d==eeeeeedeee=e==eeddeeeee===eeed",
"eeeeeee==>ee=eeee>>>=eeeeeee>>eee=edeeeede====e>eededde>d===eeee",
"deeeeee=e=eeee=edede==>==eee>>ee==eddeeeee==X=e>eddddeede====ed=",
"dedee=====e>ee=edeeeee=>eeeeee>e>=>edecdde=>=ee==dddde>deX===ed=",
"dcceee=====>ee=eeed>===eedeeeeee==eedeedde=>==e=eeeedeedd=e>=dde",
"ecje>e=====eeeeeedee====edeee=ee==eedccddd======eeeeedeed=eeedje",
"euee=ee=e=e>eedeede>====eee>e==e>=>decued>=======>deeedddeee>ecX",
"edcd>ed===eee=eeee>e====>ddedeedeeeedjjed>==X====eedeeedd==e=ede",
"eeedeee===>eeeeee>>====ee==ededdee=eddedd>e==e==>eeeeeedd==eeeed",
"ddeeeeeX>dddcccejdde===ee==eeedee==eddede=ee====>eeeedeee=>eeeee",
"cdeeeee=eeddcd=dddd>===eeeeeeeede>=ddcdcd>=======edeedeee=>eeeee",
"deeeee>=>eddccddded>====eed>e=>de==eeeeddeee==e==eceee>ee=eeeeee",
"eceeeee=>ededccddeee>e===edee=ede==eedjdd>====e=>dccee=ee====ede",
"eceee>>===dddccddede=e=e=edee=ed>==eeeede=====>=>ddedd>ee==>>eec",
"deed==e=e=eddeede>d>=d>eeeeee=>d===edeede==e====>eeedd>=eeeddeej",
"edjde=e=eeddeeede>d>>d=ee==ee=dd==eededdd=======eedcede>e==>edej",
"eccddee==edeceeeeed=>d>eeeee=>dd>=eedeeedee====>dddcdeeed=>eeeee",
"cedddeee==dece=eeee==eeeeee=>>de>>eeeedede=e==e=ddddee==e==eeeee",
"ceddded>>eddjcede>>==eeeeee>e>edeeedeedeee===eeeddeee=>ee=>eeeed",
"eejee>eeeedejcce>>ee=deedeeee=ee==>ee=ddee=>=ededdeee>eed=ededee",
"ddcee>ee=edeeceeeee=eeeeee=ee=ee==>deeedee===ededddjd=edeeeeddee",
"dddeeede=ededceeeee=eeeee=eee=dd==edeedddd>>=ddeedeceeede=edddee",
"eddeeede>eddddeeeee>>e=ed=eeeede==eeeeeede>==eddeddddeeee=eeedde",
"decddddeedjeededeee==ee>e===eeee==>eddddde===ddeddd>eee===>>eedd",
"eejeeee==djdddddde>==>=>ee=ee=ee==>edddddee>=de=eedce>ee==>>eeee",
"eeee>ee==ddeccdddde==>=eeeee>=ee==eedddddd>>=edeeedee=ee===eddee",
"edde>ee=eddddjeddde==e==edd=>=ee===edcdddd>>=dde>eeXe>>>===eeddc",
"eejdeee==>djedeedde==>==eee===e=X===eccdeee==edee>eeeeee====>dde",
"eedeeed>e>ddddedddd=X>eeeede>===X=eeeedeee===eeeeedee>e>=X==eddc",
"eddeeed=e=ejddedddd==eeedede====X=>e=edeede==eeeeeeee===e==eedde",
"eddeeed=e=ecceedded==eeedee==X==XX=eeeeeeee>=deeeeeeee===X=eeeee",
"eeeeeeee==ecjeeedde==edee=ee>X=XX=>e=e>dde=>=>ee>eeede======eddc",
">eeeeede=>ejdddeddd==ee=e>eed=====>eededeeee==>>eeeeee=====>eddc",
">eeeeedee>>dedjedee==ee=eeeee=====eedceedeee=>==>deee======eede>",
"eeeeeedeeeededceeee==eeee=eee==XX=edcceeee===ee>>eedee=====edded",
"dee=>edee>edeeddeee==eeee==ee===X=eeeedeee===>eedeeejee====eeecc",
"ee=>=edee>edeeede=e==eedee>ee==XXXeeeeeee==e=eeeeeedee>=====edce",
"dd=deede==eeeeeddeee=>eeee=ee====Xe>eeeeeeee>eeeeeeeeee>====>eee",
"dddeeee>eeeeeeedde>==eedee==e=====eedjdeeeee===>ee=ede=ee=eeee>e",
"eede>ed>>=edeeeeeee==eedeeeeee=XXX>eee>dee>>>eeeed=eeeee==eeee=e",
"edce=ed>==edddeedd>=>edddeeede==XXeededee>>e>eeeed>eee=e====d>=e",
"eeceeedee>ddeeeeeee==eddde=ede==XXeeeeceee>eeeee>de=eee=====e=dd",
"ddcd>ed>==eeee=eeee==edddeeeee====>deeceee=eeedd>ee=dd>====ee=dd",
"edee=ede==eed>=eeee==edddeee>==e==eeeeceee==>edeede=ee====>ee=de",
"edde=ede=eeeeeeee>e==edddeede==e==edeecedd==>e>eede=ed====e>==ee",
"eeeeedd>eeeeeeeee=>==edededeee=XX=eddceeee>>ed>eddeeed===Xee=eee",
"deeeedd===eeeeedeee==eded>eee==XX=edddeee>e=>ddeddeeee====ee=eee",
"eeeeeee===dedeede>e==eeededede=====deedeeeeeeedddddeeee===eeeee=",
"ddd>eee===deddede=>==eedddddde===>>eeeeedeedeeddeeeedde>====eeec"
};
