/* XPM */
static const char *ilbouidd_64[] = {
/* columns rows colors chars-per-pixel */
"64 64 210 2 ",
"   c #110E14",
".  c #161116",
"X  c #1C151C",
"o  c #151118",
"O  c #0F0D12",
"+  c #20151C",
"@  c #241A22",
"#  c #2C1F27",
"$  c #2B212B",
"%  c #36252C",
"&  c #392B35",
"*  c #3F323E",
"=  c #47333B",
"-  c #50363D",
";  c #432B32",
":  c #1F234F",
">  c #262B5A",
",  c #292E5D",
"<  c #232854",
"1  c #2A2F60",
"2  c #2D3264",
"3  c #2F3569",
"4  c #313565",
"5  c #31366A",
"6  c #343A6D",
"7  c #393D6E",
"8  c #363D71",
"9  c #383F73",
"0  c #483845",
"q  c #583D45",
"w  c #423E66",
"e  c #3B4175",
"r  c #3D457A",
"t  c #3F487E",
"y  c #374077",
"u  c #3D416F",
"i  c #5C424B",
"p  c #58495A",
"a  c #66454C",
"s  c #684C56",
"d  c #704B52",
"f  c #75535B",
"g  c #6C505C",
"h  c #424676",
"j  c #40477B",
"k  c #42497D",
"l  c #4A4E7E",
"z  c #444876",
"x  c #534F78",
"c  c #6B5669",
"v  c #785B66",
"b  c #64556C",
"n  c #776379",
"m  c #7F606C",
"M  c #86565D",
"N  c #855C64",
"B  c #89646C",
"V  c #96646D",
"C  c #8A6873",
"Z  c #9C6C75",
"A  c #9A6D77",
"S  c #9B737B",
"D  c #A46C73",
"F  c #AC6D7A",
"G  c #AC757A",
"H  c #A67278",
"J  c #B47A7D",
"K  c #B57A7E",
"L  c #B3697A",
"P  c #3F4880",
"I  c #434C83",
"U  c #474F84",
"Y  c #475087",
"T  c #4D5182",
"R  c #475189",
"E  c #4A548C",
"W  c #4D588F",
"Q  c #525584",
"!  c #555A8B",
"~  c #5A5E8D",
"^  c #535788",
"/  c #4B5690",
"(  c #4E5993",
")  c #525C95",
"_  c #535E99",
"`  c #5E618F",
"'  c #5C6192",
"]  c #55619C",
"[  c #5B649C",
"{  c #7A6987",
"}  c #626594",
"|  c #696C9C",
" . c #676B9B",
".. c #6E719E",
"X. c #5A65A2",
"o. c #5C68A5",
"O. c #5B67A4",
"+. c #616EAB",
"@. c #686EA2",
"#. c #6C72A7",
"$. c #7275A2",
"%. c #7176A9",
"&. c #757AAC",
"*. c #797CA9",
"=. c #6E7CBC",
"-. c #6875B3",
";. c #737CB3",
":. c #767EB6",
">. c #8F7487",
",. c #997785",
"<. c #8F7C9B",
"1. c #A47A83",
"2. c #AC7A82",
"3. c #A87D88",
"4. c #B47B83",
"5. c #BB7E85",
"6. c #B37D89",
"7. c #A17F92",
"8. c #BB6D81",
"9. c #867CA2",
"0. c #C27688",
"q. c #D77C97",
"w. c #7C82B5",
"e. c #7C80AE",
"r. c #7D8CCB",
"t. c #7786C4",
"y. c #9F808D",
"u. c #BC8284",
"i. c #B4838B",
"p. c #BB838B",
"a. c #B48489",
"s. c #B58A93",
"d. c #BE8C93",
"f. c #B98A94",
"g. c #B28C97",
"h. c #878BBA",
"j. c #9785A0",
"k. c #BA98A6",
"l. c #A696AF",
"z. c #BEA9BD",
"x. c #C2848C",
"c. c #C7888D",
"v. c #C48C93",
"b. c #CC8D93",
"n. c #CC899B",
"m. c #D18C98",
"M. c #C4959C",
"N. c #CC959B",
"B. c #CA9499",
"V. c #D3949C",
"C. c #D2999E",
"Z. c #DA989F",
"A. c #D88BA2",
"S. c #C99BA3",
"D. c #C79AA5",
"F. c #D59BA2",
"G. c #DA9BA3",
"H. c #D598A5",
"J. c #EC99B0",
"K. c #CCA3AC",
"L. c #DBA3AB",
"P. c #D4A3AB",
"I. c #CBA9B5",
"U. c #D3ABB4",
"Y. c #DCAAB4",
"T. c #D6ABB6",
"R. c #D4B4BD",
"E. c #DBB1BD",
"W. c #E5A2AE",
"Q. c #E3AAB4",
"!. c #E5AEB9",
"~. c #E7A8B6",
"^. c #E6B2BD",
"/. c #ECB2BD",
"(. c #838DC4",
"). c #828EC9",
"_. c #8892CA",
"`. c #8998D5",
"'. c #929DD4",
"]. c #94A2DD",
"[. c #A0A6D3",
"{. c #9CABE5",
"}. c #97A6E1",
"|. c #A1AEE7",
" X c #A5B2EA",
".X c #DABAC5",
"XX c #ECB5C2",
"oX c #ECBAC4",
"OX c #E4BDCA",
"+X c #ECBDCA",
"@X c #E6B9C6",
"#X c #F2BDCB",
"$X c #F0B6C3",
"%X c #DFC0C9",
"&X c #EDC1CD",
"*X c #E2C4CE",
"=X c #F2C2CD",
"-X c #EDC5D2",
";X c #EACAD6",
":X c #EDCDDC",
">X c #E6C8D4",
",X c #F2C8D7",
"<X c #F2CCDC",
"1X c #F4C5D3",
"2X c #ECD0DD",
"3X c #EBD3E4",
"4X c #E7D4E6",
"5X c #F1D2E3",
"6X c white",
"7X c black",
/* pixels */
"6X6X6X6X6X6X6X6X6X6X6X6X6X6X6X6X6X6X6X6X6X6X6X6X6X6X6X6X6X6X6X6X6X6X6X6X6X6X6X6X6X6X6X6X6X6X6X6X6X6X6X6X6X6X6X6X6X6X6X6X6X6X6X6X",
"6X6X6X6X6X6X6X6X6X6X6X6X6X6X6X6X6X6X6X6X6X6X6X6X6X6X6X6X6X6X6X6X6X6X6X6X6X6X6X6X6X6X6X6X6X6X6X6X6X6X6X6X6X6X6X6X6X6X6X6X6X6X6X6X",
"6X6X6X6X6X6X6X6X6X6X6X6X6X6X6X6X6X6X6X6X6X6X6X6X6X6X6X6X6X6X6X6X6X6X6X6X6X6X6X6X6X6X6X6X6X6X6X6X6X6X6X6X6X6X6X6X6X6X6X6X6X6X6X6X",
"6X6X6X6X6X6X6X6X6X6X6X6X6X6X6X6X6X6X6X6X6X6X6X6X6X6X6X6X6X6X6X6X6X6X6X6X6X6X6X6X6X6X6X6X6X6X6X6X6X6X6X6X6X6X6X6X6X6X6X6X6X6X6X6X",
"6X6X6X6X6X6X6X6X6X6X6X6X6X6X6X6X6X6X6X6X6X6X6X6X6X6X6X6X6X6X6X6X6X6X6X6X6X6X6X6X6X6X6X6X6X6X6X6X6X6X6X6X6X6X6X6X6X6X6X6X6X6X6X6X",
"6X6X6X6X6X6X6X6X6X6X6X6X6X6X6X6X6X6X6X6X6X6X6X6X6X6X6X6X6X6X6X6X6X6X6X6X6X6X6X6X6X6X6X6X6X6X6X6X6X6X6X6X6X6X6X6X6X6X6X6X6X6X6X6X",
"6X6X6X6X6X6X6X6X6X6X6X6X6X6X6X6X6X6X6X6X6X6X6X6X6X6X6X6X6X6X6X6X6X6X6X6X6X6X6X6X6X6X6X6X6X6X6X6X6X6X6X6X6X6X6X6X6X6X6X6X6X6X6X6X",
"6X6X6X6X6X6X6X6X6X6X6X6X6X6X6X6X6X6X6X6X6X6X6X6X6X6X6X6X6X6X6X6X6X6X6X6X6X6X6X6X6X6X6X6X6X6X6X6X6X6X6X6X6X6X6X6X6X6X6X6X6X6X6X6X",
"6X6X6X6X6X6X6X6X6X6X6X6X6X6X6X6X6X6X6X6X6X6X6X6X6X6X6X6X6X6X3X;X>X;X6X6X6X6X6X6X6X6X6X6X6X6X6X6X6X6X6X6X6X6X6X6X6X6X6X6X6X6X6X6X",
"6X6X6X6X6X6X6X6X6X6X6X6X6X6X6X6X6X6X6X6X6X6X6X6X6X6X6X6X2X>X.XU.U.T..X*X>X6X6X6X6X6X6X6X6X6X6X6X6X6X6X6X6X6X6X6X6X6X6X6X6X6X6X6X",
"6X6X6X6X6X6X6X6X6X6X6X6X6X6X6X6X6X6X6X6X6X6X6X6X6X6X:X;XOXT.P.N.N.N.S.P.R.%X6X6X6X6X6X6X6X6X6X6X6X6X6X6X6X6X6X6X6X6X6X6X6X6X6X6X",
"6X6X6X6X6X6X6X6X6X6X6X6X6X6X6X6X6X6X6X6X6X6X6X6X6X;X-XOX^.Y.L.F.N.C.C.N.N.K.R..X6X6X6X6X6X6X6X6X6X6X6X6X6X6X6X6X6X6X6X6X6X6X6X6X",
"6X6X6X6X6X6X6X6X6X6X6X6X6X6X6X6X6X6X6X6X6X6X6X6X:X-X+XoX^.!.Q.L.F.F.F.C.N.N.D.U..X6X6X6X6X6X6X6X6X6X6X6X6X6X6X6X6X6X6X6X6X6X6X6X",
"6X6X6X6X6X6X6X6X6X6X6X6X6X6X6X6X6X6X6X6X6X6X6X6X:X-X&X+XXX!.Q.Q.L.F.F.Z.N.B.B.S.I.6X6X6X6X6X6X6X6X6X6X6X6X6X6X6X6X6X6X6X6X6X6X6X",
"6X6X6X6X6X6X6X6X6X6X6X6X6X6X6X6X6X6X6X6X6X6X6X:X:X-X&XoXoX^.!.!.Q.G.Z.Z.C.N.N.N.D.R.6X6X6X6X6X6X6X6X6X6X6X6X6X6X6X6X6X6X6X6X6X6X",
"6X6X6X6X6X6X6X6X6X6X6X6X6X6X6X6X6X6X6X6X6X6X6X:X,X-X&XoXoX^.Q.Q.Q.G.F.f.S C S d.N.I..X6X6X6X6X6X6X6X6X6X6X6X6X6X6X6X6X6X6X6X6X6X",
"6X6X6X6X6X6X6X6X6X6X6X6X6X6X6X6X6X6X6X6X6X6X4X:X,X=X+XE.D.f.F.Y.Y.L.v.B f B C ,.d.K..X6X6X6X6X6X6X6X6X6X6X6X6X6X6X6X6X6X6X6X6X6X",
"6X6X6X6X6X6X6X6X6X6X6X6X6X6X6X6X6X6X6X6X6X6X3X5X<XOXg.C c C i.P.Y.F.p.6.v.C.B.v.f.K..X6X6X6X6X6X6X6X6X6X6X6X6X6X6X6X6X6X6X6X6X6X",
"6X6X6X6X6X6X6X6X6X6X6X6X6X6X6X6X6X6X6X6X6X6X4X5X:XI.D.D.S.N.F.Q.^.B.5.x.x.p.2.i.M.K.R.6X6X6X6X6X6X6X6X6X6X6X6X6X6X6X6X6X6X6X6X6X",
"6X6X6X6X6X6X6X6X6X6X6X6X6X6X6X6X6X6X6X6X6X6X3X5X:X>X&XY.x.J x.L.!.c.J J Z g i N a.S.R.6X6X6X6X6X6X6X6X6X6X6X6X6X6X6X6X6X6X6X6X6X",
"6X6X6X6X6X6X6X6X6X6X6X6X6X6X6X6X6X6X6X6X6X6X4X3X3X-XT.,.g V D F./.V.J D H Z D 2.p.B.U.6X6X6X6X6X6X6X6X6X6X6X6X6X6X6X6X6X6X6X6X6X",
"6X6X6X6X6X6X6X6X6X6X6X6X6X6X6X6X6X6X6X6X6X6X4X5X<X@XK.k.A 4.p.!.$XG.5.4.4.x.c.b.N.N.K.I.6X6X6X6X6X6X6X6X6X6X6X6X6X6X6X6X6X6X6X6X",
"6X6X6X6X6X6X6X6X6X6X6X6X6X6X6X6X6X6X6X6X6X6X4X5X,X&X+X!.G.G.!.#X#XQ.b.p.x.c.b.V.F.F.P.D.x.6X6X6X6X6X6X6X6X6X6X6X6X6X6X6X6X6X6X6X",
"6X6X6X6X6X6X6X6X6X6X6X6X6X6X6X6X6X6X6X6X6X6X3X5X,X=XoX!.~.~.XX-X+XQ.v.p.v.m.V.Z.G.F.K.s.8.6X6X6X6X6X6X6X6X6X6X6X6X6X6X6X6X6X6X6X",
"6X6X6X6X6X6X6X6X6X6X6X6X6X6X6X6X6X6X6X6X6X6X&X:X<X,X#X$X/.~.!.H.3.H.N V 5.b.G.G.H.N.D.1.x.6X6X6X6X6X6X6X6X6X6X6X6X6X6X6X6X6X6X6X",
"6X6X6X6X6X6X6X6X6X6X6X6X6X6X6X6X6X6X6X6X6XJ.Q..X5X<X1X#X/.W.W.V.f.i.Z M D c.Z.G.H.N.M.B i.6X6X6X6X6X6X6X6X6X6X6X6X6X6X6X6X6X6X6X",
"6X6X6X6X6X6X6X6X6X6X6X6X6X6X6X6X6X6X6X6X6XJ.G.D.:X<X1X#X/.W.S.d.p.6.4.Z M f Z C.C.N.s.v s.6X6X6X6X6X6X6X6X6X6X6X6X6X6X6X6X6X6X6X",
"6X6X6X6X6X6X6X6X6X6X6X6X6X6X6X6X6X6X6X6X6XXXW.s.*X<X1X=X^.1.3.H.n.0.8.L D N a 2.N.N.1.s 6X6X6X6X6X6X6X6X6X6X6X6X6X6X6X6X6X6X6X6X",
"6X6X6X6X6X6X6X6X6X6X6X6X6X6X6X6X6X6X6X6X6X6X+Xk.I.<X,X=XY.S 6.A.A.q.q.0.F D N H v.d.B i 6X6X6X6X6X6X6X6X6X6X6X6X6X6X6X6X6X6X6X6X",
"6X6X6X6X6X6X6X6X6X6X6X6X6X6X6X6X6X6X6X6X6X6X:Xk.g.-X-X&XT.s.Y.XXQ.n.0.5.x.c.G V 1.A a = 6X6X6X6X6X6X6X6X6X6X6X6X6X6X6X6X6X6X6X6X",
"6X6X6X6X6X6X6X6X6X6X6X6X6X6X6X6X6X6X6X6X6X6X6X>.,.I.E.K.d.M.oXXXG.5.G u.b.v.H d d i & & 6X6X6X6X6X6X6X6X6X6X6X6X6X6X6X6X6X6X6X6X",
"6X6X6X6X6X6X6X6X6X6X6X6X6X6X6X6X6X6X6X6X6X6X6X6Xn >.y.S S ,.T.@XQ.G.V.m.b.2.d ; ; % @ 6X6X6X6X6X6X6X6X6X6X6X6X6X6X6X6X6X6X6X6X6X",
"6X6X6X6X6X6X6X6X6X6X6X6X6X6X6X6X6X6X6X6X6X6X6X6Xp p s g f v ,.k.Y.L.G.v.Z a % @ @ @ X 6X6X6X6X6X6X6X6X6X6X6X6X6X6X6X6X6X6X6X6X6X",
"6X6X6X6X6X6X6X6X6X6X6X6X6X6X6X6X6X6X6X6X6X6X6X6Xp 0 0 0 q i g m ,.i.6.Z a % + . . X @ 6X6X6X6X6X6X6X6X6X6X6X6X6X6X6X6X6X6X6X6X6X",
"6X6X6X6X6X6X6X6X6X6X6X6X6X6X6X6X6X6X6X6X6X6X6X6X6Xn p * 0 = & = 0 q q ; $ X . . . # 6X6X6X6X6X6X6X6X6X6X6X6X6X6X6X6X6X6X6X6X6X6X",
"6X6X6X6X6X6X6X6X6X6X6X6X6X6X6X6X6X6X6X6X6X6X6X6X6Xz.k.c 0 & $ @ @ X X . . .     % v 6X6X6X6X6X6X6X6X6X6X6X6X6X6X6X6X6X6X6X6X6X6X",
"6X6X6X6X6X6X6X6X6X6X6X6X6X6X6X6X6X6X6X6X6X6X6X6X[.l.-XI.v 0 $ X o         O . % N s.6X6X6X6X6X6X6X6X6X6X6X6X6X6X6X6X6X6X6X6X6X6X",
"6X6X6X6X6X6X6X6X6X6X6X6X6X6X6X6X6X6X6X6X6X6Xh.'._.j.-X&XU.y.c & @   O     X = B a.s.{ h.6X6X6X6X6X6X6X6X6X6X6X6X6X6X6X6X6X6X6X6X",
"6X6X6X6X6X6X6X6X6X6X6X6X6X6X6X6X6X6X6X6X%.&.&.w.:.9.@X=X^.Y.D.,.B s - - q f H u.u.a.n | $. .*.6X6X6X6X6X6X6X6X6X6X6X6X6X6X6X6X6X",
"6X6X6X6X6X6X6X6X6X6X6X6X6X6X6X6X6X6Xw.&.@.%.@.| @.@.D.=XXX!.Q.L.N.p.H D J 5.u.u.u.2.b ! ` } ` ..$.6X6X6X6X6X6X6X6X6X6X6X6X6X6X6X",
"6X6X6X6X6X6X6X6X6X6X6X6X6X6X6X%.%.&.:.|  .@.' ! ~ [ 9.E.oX^.Q.L.F.V.b.c.u.5.K J J A x l l Q ~ Q } ~ } 6X6X6X6X6X6X6X6X6X6X6X6X6X",
"6X6X6X6X6X6X6X6X6X6X6X6X6Xw.w.:.&.%. .' ' [ ^ k T T [ 7.L.Q.Y.L.C.b.c.u.J J G J G b e z z u Q l ~ ~ `  .$.*.6X6X6X6X6X6X6X6X6X6X",
"6X6X6X6X6X6X6X6X6X6X6X_.(.h.&.$.| } ~ ! ! ) Y 7 I I I } ,.B.F.F.N.v.p.u.4.4.J G v 7 5 e 7 2 z h l ~ ~ } ..&.&.*.6X6X6X6X6X6X6X6X",
"6X6X6X6X6X6X6X6X6X6X_.(.;.%.} ' ~ Q Q Q T E E 4 t U e I ' { i.F.L.L.L.P.F.B.2.c 4 2 3 5 e , 7 z e ^ Q ! ` } | ..*.e.6X6X6X6X6X6X",
"6X6X6X6X6X6X6X6X6X_.).;.} ' T T T l l l l Y E 4 e U r 8 I ( ! { ,.7.7.>.n b w , , 2 2 , 6 , 6 z 6 T l l l Q ! Q } | *.6X6X6X6X6X",
"6X6X6X6X6X6X6X6X_.(.-.@.! T e z k k l l l U W 7 e U 9 8 9 I E P e 8 3 , > > 1 1 3 5 6 , 7 2 6 z 5 k l z z k T z Q Q } $.6X6X6X6X",
"6X6X6X6X6X6X6X).(.-.[ ! l z 9 e e k l l U k E e 6 Y 6 5 r r I U Y t 8 3 6 5 2 5 5 6 6 2 9 4 6 j 6 j T z z j T e U z l ~ ..6X6X6X",
"6X6X6X6X6X6X_.(.;.[ ) k e e 9 e e k k k k j E j 5 U e 2 9 t e t I t 8 6 6 6 6 6 5 9 4 2 9 5 6 j 7 e l z e e I e e e e k ~ $.6X6X",
"6X6X6X6X6X6Xr.-.+.W E e e e 6 e e k j e j e I I 4 t I 2 3 t t 5 6 8 6 5 8 9 8 6 e e 2 5 e 6 6 r 7 8 I 7 9 e k e 6 7 4 9 l  .$.6X",
"6X6X6X6X6X].;.#._ E U t e e 5 e e I r e k r k I 5 e R 5 2 8 I I 6 3 8 e e e 8 e I 9 2 5 e 6 6 e 7 8 I e 6 8 r r 2 5 1 5 z Q l 6X",
"6X6X6X6X6X`.-.=.E W t U r e 6 e 9 I r e k j j U 6 6 E e 2 5 8 t I e 2 6 9 9 e P U 6 2 6 e 6 6 e 8 6 I e 5 5 9 r 2 3 , 2 7 k e z ",
"6X6X6X6X|.).+.=.( R e U I k 6 e 9 I t e t t r I 9 5 I I 2 5 6 8 r R r 2 2 8 e I I 5 3 8 e 6 6 e 8 5 I z 5 5 8 r 2 2 , 2 5 e e l ",
"6X6X6X6X{.).O.-.X.Y t I t U 5 e 9 I k 9 t k r U e 5 e E 5 2 6 8 8 t R r 3 3 8 I I 5 3 8 e 6 8 e 8 5 t r 5 6 6 e 3 , 2 2 2 7 7 U ",
"6X6X6X X].).X.o.o.E U k e U 3 e e I I 8 t I r I t 6 9 R e 2 5 8 8 8 P R r 3 6 I I 5 5 8 e 6 8 e 8 5 e j 4 6 6 8 5 , 2 , 4 6 8 U ",
"6X6X6X X].r.o.X.X.E E t 6 I 5 r t I U 9 k I k I U 6 9 I R 2 5 8 8 6 9 I Y e 8 I r 5 6 9 e 8 8 e 9 6 e I 3 6 6 8 6 , 2 < 6 6 9 U ",
"6X6X6X{.`.t.-._ X.E I I 3 r 6 t P U E 9 I U k I U 8 9 t E 9 2 6 9 8 6 e I I e U e 5 6 e e 8 e e 9 8 9 I 5 5 6 6 6 , > , 6 6 e k ",
"6X6X X{.).t.-.X._ _ 9 t 3 e 8 I I U / e I R U I Y e 9 e U I 2 5 8 9 6 8 P U I R e 3 6 e e 9 e e 9 8 8 I 5 5 6 8 6 > < 3 6 6 8 r ",
"6X6X X}.).=.-.o._ ( I 3 2 e 9 I I R ) r U R R I Y e e e t U 6 2 6 9 8 6 e I I R e 5 8 e e e e e 9 8 8 I 8 2 6 6 6 > < 3 6 6 8 e ",
"6X6X X].r.=.+.X._ / U 6 2 r e I U ( ) r R E E I R r e e e t t 2 5 8 e 6 9 I I E e 5 8 r e e e e e 8 8 t e 1 5 6 6 < > 5 5 6 8 9 ",
"6X6X|.`.t.=.+.] _ / P 8 5 z t t E _ _ t E W E Y Y t e e e e I 5 3 8 9 8 8 t Y E e 5 9 t e e e e e 8 6 e e 1 2 5 5 > > 3 5 6 6 8 ",
"6X X}.`.t.-.o.X./ R t 6 6 z R r E X._ I W ) W Y Y k e e e 8 t e 2 6 8 8 9 r Y E e 6 e r e e 9 9 9 8 6 9 e 2 1 2 3 , > 3 3 6 6 8 ",
"6X|.].).t.-.o.X.) I y 3 3 t / t R X.] Y / ) W Y U I r e e 6 e I 2 5 8 8 8 e I E 9 5 r k I k e e 8 6 6 6 e 3 > 2 2 > > 3 5 5 6 8 ",
"6X{.'.r.=.-.O.] ( U 9 2 3 t _ U R o.X.E ( ) W E U k r e 9 6 8 I 5 2 6 6 6 9 I E e 3 e k U E I k r 9 8 8 8 6 5 5 , < > 3 3 5 6 6 ",
"6X{.`.t.=.+.O.( / I 9 2 2 k ] E R X.o.( ( ) W E U k r e e 6 6 I 8 1 6 6 6 8 I E e 5 e t r I I r r 9 8 8 9 9 9 6 > : > 2 3 5 6 6 "
};
