/* XPM */
static const char *wall_64[] = {
/* columns rows colors chars-per-pixel */
"64 64 174 2 ",
"   c #9F382F",
".  c #963D35",
"X  c #9B3B34",
"o  c #953E38",
"O  c #A5392F",
"+  c #AD392E",
"@  c #B33A2E",
"#  c #B93B2F",
"$  c #A33B33",
"%  c #AC3D34",
"&  c #A43F38",
"*  c #AC3E38",
"=  c #B33D34",
"-  c #BB3E34",
";  c #B23F38",
":  c #BB3F39",
">  c #C43D2F",
",  c #CD3D2E",
"<  c #C43D32",
"1  c #CD3F32",
"2  c #D03F34",
"3  c #9D403B",
"4  c #A34139",
"5  c #AD413A",
"6  c #B44037",
"7  c #BC4036",
"8  c #B44139",
"9  c #BC4139",
"0  c #C44037",
"q  c #CE4135",
"w  c #C4433B",
"e  c #CC453C",
"r  c #C6483E",
"t  c #CD483F",
"y  c #D04136",
"u  c #D2453C",
"i  c #D4483F",
"p  c #D2493E",
"a  c #9E4D46",
"s  c #9E4E4A",
"d  c #9E514C",
"f  c #9F5451",
"g  c #AF4742",
"h  c #A04D46",
"j  c #AD4B45",
"k  c #A04F49",
"l  c #B24740",
"z  c #B14E48",
"x  c #A0514D",
"c  c #BB5146",
"v  c #B6544E",
"b  c #B2514A",
"n  c #B8544B",
"m  c #BF544D",
"M  c #B65953",
"N  c #B85A55",
"B  c #C44740",
"V  c #CF4740",
"C  c #CD4740",
"Z  c #C54943",
"A  c #CD4840",
"S  c #CF4942",
"D  c #CB4A42",
"F  c #C64F49",
"G  c #CB4E48",
"H  c #D44640",
"J  c #D24740",
"K  c #D64E41",
"L  c #D54E43",
"P  c #D54F43",
"I  c #D64E42",
"U  c #D64F43",
"Y  c #D54E42",
"T  c #D34F44",
"R  c #D74F44",
"E  c #D44C42",
"W  c #CB5147",
"Q  c #C5524B",
"!  c #CC534C",
"~  c #CF594F",
"^  c #D65345",
"/  c #D55146",
"(  c #D55145",
")  c #D75447",
"_  c #D65245",
"`  c #D85346",
"'  c #D75749",
"]  c #D7544A",
"[  c #D65549",
"{  c #D85348",
"}  c #D8554A",
"|  c #D85449",
" . c #D95649",
".. c #D6594B",
"X. c #D4594D",
"o. c #DA594A",
"O. c #DA5B4D",
"+. c #DA5A4C",
"@. c #DA5B4E",
"#. c #DA5B4D",
"$. c #C65750",
"%. c #CD5651",
"&. c #C75C54",
"*. c #CB5A53",
"=. c #CC5E5A",
"-. c #D75C51",
";. c #DB5E51",
":. c #DB604F",
">. c #C16055",
",. c #CD615D",
"<. c #C6685C",
"1. c #C86D5F",
"2. c #D66356",
"3. c #DF6152",
"4. c #DC6352",
"5. c #DD6554",
"6. c #DD6655",
"7. c #DE6656",
"8. c #DE6555",
"9. c #DD6353",
"0. c #D76856",
"q. c #DE6956",
"w. c #D36359",
"e. c #DE6758",
"r. c #D66B5C",
"t. c #DA6A5B",
"y. c #E06052",
"u. c #E16756",
"i. c #E36756",
"p. c #E16855",
"a. c #E16856",
"s. c #E26856",
"d. c #E46857",
"f. c #E16D5B",
"g. c #E2715E",
"h. c #C86C62",
"j. c #D56E62",
"k. c #CE7767",
"l. c #CD7867",
"z. c #CE7867",
"x. c #CD7768",
"c. c #CE7868",
"v. c #CE7869",
"b. c #D17164",
"n. c #DE7462",
"m. c #DE7965",
"M. c #D47369",
"N. c #D07968",
"B. c #D67A6B",
"V. c #D47B6D",
"C. c #D97E6D",
"Z. c #DA7D6E",
"A. c #DB7C6D",
"S. c #DC7E71",
"D. c #E27461",
"F. c #E77D67",
"G. c #E37966",
"H. c #E97963",
"J. c #E97964",
"K. c #E87C66",
"L. c #E97C66",
"P. c #E97D67",
"I. c #E27D6A",
"U. c #E97D68",
"Y. c #E27F70",
"T. c #DF826D",
"R. c #DF8575",
"E. c #E2816C",
"W. c #E28571",
"Q. c #E48875",
"!. c #E38E7C",
"~. c #E1907D",
"^. c None",
"/. c black",
/* pixels */
"^.L.i.s.s.i p A Z.U.s.I 4.i p ; ^.L.i.I 4.p p ; l.F.J.o.p p p ; v.L.s.s.d.p H J Z.F.i.I y.p p ; ^.L.s.I y.p p ; l.L.H.o.p J p = ",
"^.4.p I I 1 u A ^.8.R H I y q ; ^...Y u R y y ; k.8.^ p p y 1 = ^.8.p I I q p A Z.8.R i I y q ; ^.] I u R y q ; l.8.^ i p y 1 = ",
"^.T y u y 1 u w ^.+.y y y u y w ^.^ u y p q q ; k.+.y y p y y ; ^.I y p u q u 9 B.+.y y y y y w ^.^ u y p q 1 ; v.+.y y i y y = ",
"^.p u u u y p ; ^.) q q y p i r ^.{ y q p y y ; 1.} y y i i p 6 ^.p u y p y p ; ^.) y q y p p r ^.} y 2 i y y ; ^.] y y i i p = ",
"^.e < > < e e 6 n r e e e e e ; ^.e < < e e e * v e < < e e e * ^.e < > < e e 8 ^.e e e e e e ; ^.r < < e e e * ^.e < < e t e ; ",
"^.$ $ $ $ $ $ 8 ^.$ $ $ $ $ $ X ^.$ $ $ $ $ $ X ^.$ $ $ $ $ $ X ^.$ $ $ $ $ $ 8 ^.$ $ $ $ $ $ X ^.$ $ $ $ $ $ X ^.$ $ $ $ $ $ X ",
"^.^.^.^.^.^.^.^.^.^.^.^.^.^.^.^.^.^.^.^.^.^.^.^.^.^.^.^.^.^.^.^.^.^.^.^.^.^.^.^.^.^.^.^.^.^.^.^.^.^.^.^.^.^.^.^.^.^.^.^.^.^.^.^.",
",.,.=.,.^.~.S.B.,.,.,.,.^.!.Z.Z.Z.,.=.^.^.!.Q.j.R.M.*.&.^.!.!.R.,.,.=.,.^.!.S.j.w.,.,.,.^.!.S.Z.S.,.,.=.^.!.!.j.R.M.*.&.^.!.!.!.",
"e p p w ^.g.@.} p p p w ^.g.@.;.;.J p w ^.g.9.) 9.) e w ^.g.9.4.p p p w ^.D.;.] p p J B ^.g.;.;.@.p p w ^.g.9.] 9.] t w ^.g.8.q.",
", y p = ^.} p y 1 y p ; ^...p p p p y - ^.} q y p u p = ^.} 1 y 1 y p = ^.} u q 1 y u ; ^.X.p p p i y = ^.] 1 y p p p = ^.} 1 y ",
", y 1 = ^.u y p p u 1 % ^.p 1 1 q p y w ^.J p p i y p = ^.p p i 1 y 1 @ ^.p y u p p 1 @ ^.p 1 1 y i y e ^.J i p p y p = ^.p u p ",
"u u 1 @ ^.1 q p p p 1 @ ^.^ u u p p p - ^.J p q q p p r ^.q y p p u , @ ^.q q p p p 1 @ ^.^ y p p p p - ^.J H y y p p w ^.1 y i ",
"= ; = $ ^.= = = = ; = = ^.8 ; 6 ; ; ; $ ^.; ; = = = = 8 ^.@ = = = = = $ ^.% = = = = = 8 ^.8 = = = = ; $ ^.6 = = = = = ; ^.% = = ",
"a a a a ^.a a a a a a M ^.a a a a a a a ^.a a k a a h d ^.a a a h a a ^.^.a h h h h h N ^.a h h h a a a ^.a h a a a h a ^.a a a ",
"^.^.^.^.^.^.^.^.^.^.^.^.^.^.^.^.^.^.^.^.^.^.^.^.^.^.^.^.^.^.^.^.^.^.^.^.^.^.^.^.^.^.^.^.^.^.^.^.^.^.^.^.^.^.^.^.^.^.^.^.^.^.^.^.",
"^.I.G.G.t.D D G ^.I.t.W 2.D D 5 ^.G.G.X.A D D 5 ^.I.t.2.W D D 5 ^.I.G.G.t.D A Z ^.I.t.W 2.D D 5 ^.I.G.X.A A D 5 ^.I.t.2.W D D 5 ",
"^.4.I ^ i y i A ^.:.p u H y q ; ^.^ I p i y 1 % l.4.I I i y y % b.4.^ ^ i y i C ^.4.p p I y y = ^.^ I p i y 1 = x.9.I H i y e = ",
"^.R y 2 y y p 9 ^.o.y e p y 2 r ^.{ u p p u y ; v.@.p p q 1 u ; ^.R y 2 q y p 9 N.+.y y p q q r ^.^ u u p u y ; k.+.i p y 1 y = ",
"^.p y , 2 y p ; ^.^ y y H y u w ^.^ y y p J J ; ^.^ y u y y p ; ^.J y , q u p ; ^.{ y y H y y r ^.^ u y i H p ; <.{ y u y y p = ",
"^.w < > < w w 8 ^.r 0 w r w w * ^.w < < w w w * b w < 0 w w w * ^.w < > < w w ; ^.r w w w w w * ^.w < < w w w * b w < 0 w w w ; ",
"^.X X X X X X l ^.X X X X X X X ^.X X X X X X . ^.X X X X X X X ^.X X X X X $ 8 ^.X $ X $ X X X ^.X X X X X X . ^.X X X X X X X ",
"^.^.^.^.^.^.^.^.^.^.^.^.^.^.^.^.^.^.^.^.^.^.^.^.^.^.^.^.^.^.^.^.^.^.^.^.^.^.^.^.^.^.^.^.^.^.^.^.^.^.^.^.^.^.^.^.^.^.^.^.^.^.^.^.",
"Z D D ^.^.E.r.2.W Z *.z ^.E.E.m.W D Z ^.^.T.T.E.2.7 r ^.^.E.t.2.W Z D ^.^.T.r.2.! D D ^.^.Q.E.m.W D D ^.^.E.E.E.0.7 B ^.^.T.r.r.",
"y p p w ^.f.o.` u q p ; ^.f.4.4.J i p w ^.f.4.4.^ q p G ^.f.) ` p p J w ^.f.+.^ u y p ; ^.f.4.;.H J p 9 ^.f.4.4.^ q p A ^.f.) ` ",
"1 y p = ^.] y q 1 q u ; ^.] y y u p y @ ^.] p p q u p Z ^.^ , y 2 y p ; ^.} y y 1 1 y ; ^.] y y p p e + ^.] p p q u p w ^.^ 1 y ",
"i p q = ^.p 1 y i u q 8 ^.u 1 1 q i y = ^.J i u u i J = ^.J 1 u i u q ; ^.p 1 y p u q ; ^.p 1 1 y i y = ^.J i i u i p = ^.p 1 y ",
"J p e = ^.p q p p p e 8 ^.e u p p p p ; ^.t p q q p p = ^.J p p p J e % ^.t q p p t q ; ^.e e p p p p ; ^.J J q q p p ; ^.C p p ",
"* % % $ ^.% % * * * % $ ^.% * * * * % $ ^.* * % % * * $ ^.; - - - - = $ ^.= = = = = = % ^.= = = - = * $ ^.* * % % * * $ ^.% * * ",
"^.d a ^.^.^.^.^.x d ^.^.^.^.k x x ^.^.^.^.a d x d a a ^.^.^.^.^.^.^.^.^.^.^.^.^.^.^.^.^.^.^.^.^.^.^.^.^.^.a d x x a a ^.^.^.^.f ",
"^.^.^.^.^.^.^.^.^.^.^.^.^.^.^.^.^.^.^.^.^.^.^.^.^.^.^.^.^.^.^.^.^.^.^.^.^.^.^.^.^.^.^.^.^.^.^.^.^.^.^.^.^.^.^.^.^.^.^.^.^.^.^.^.",
"^.G.8.;.T t A D ^.G.D...A C t Z ^.G.D.@.;.t C 5 ^.D.D...A t r 5 ^.G.8.4.T t A D V.G.D.X.A t t Z ^.G.D.;.;.t t * ^.D.D...t A t ; ",
"^.;.p H u 1 p A ^.@.I i i y q 6 ^.@.p u p q 1 = ^.e p p i q q ; ^.@.i H u 1 u A ^.@.H i p q q = ^.@.i p H y 1 = c e p u i y q = ",
"^.J y i p q q 9 ^.Y p q e u u ; ^.+.y u p u u ; ^.q y p p u u ; ^.J y i p q y 9 ^.J i y y u u ; ^.+.u p p u y ; c q y p p p u = ",
"^.p q y p u u ; ^.p H y q q p ; ^.R y y u i p ; ^.p y y p i p 8 ^.p q y p u u ; ^.p i y y y p ; ^.I q y p H J ; m p u q p H J = ",
"^.0 - - 0 w w 8 ^.w w - - - 0 % ^.w - - 0 w w % ^.w < - w w w % ^.9 # - w w w 8 ^.9 w - - - 7 % ^.9 - - 0 w w % b 9 - - w w w % ",
"^.X X X X X X g ^.X X X X X X . ^.X X X X X X . ^.X X X X X X o ^.X X X X X X g ^.X X X X X X o ^.X X X X X X . ^.X X X X X X X ",
"^.^.^.^.^.^.^.^.^.^.^.^.^.^.^.^.^.^.^.^.^.^.^.^.^.^.^.^.^.^.^.^.^.^.^.^.^.^.^.^.^.^.^.^.^.^.^.^.^.^.^.^.^.^.^.^.^.^.^.^.^.^.^.^.",
"G %.%.Q ^.I.r.t.! ! ! ! ^.m.r.Y.*.! G Z ^.I.I.X.D D r w ^.I.I.X.D D D Z ^.I.t.2.G G D F ^.G.2.n.! %.%.Q ^.W.W.w.! ! ! Z ^.W.W.r.",
"q u p 9 ^.q.) I y u J 9 ^.8.^ +.H p u - ^.e.o.R J J p - ^.8.) p q u p 9 ^.t.] I y p J 9 ^.8.` +.J p u - ^.8.} I p p p - ^.q.) I ",
"1 y u = ^.^ y y q y u = ^.^ y y u i e - ^.^ q p p u u ; ^.^ q y q y p = ^.^ y q q y y = ^.^ y q u i y - ^.^ q p p u u = ^.^ 1 y ",
"y y y = ^.p y p p u 1 - ^.e q 1 q i u w ^.p p p p y q - ^.p p p y y y @ ^.e q p i p 1 @ ^.t q 1 q p y w ^.p i p i y q = ^.p i p ",
"t e < ; ^.< q t p t < w ^.e e t t t t = ^.e e e t t t w ^.t t e e t < = ^.< q t t t < e ^.e e t t p t ; ^.e e e t t t w ^.C t q ",
"% % $ $ ^.$ % % % % % $ ^.% % % % & & X ^.$ % % % % % O ^.% % $ % % %   ^.$ O % % % O $ ^.% % & % % % X ^.$ % % % % $ $ ^.& % % ",
"^.^.^.^.^.^.^.^.^.^.^.^.^.^.^.^.^.^.^.^.^.^.^.^.^.^.^.^.^.^.^.^.^.^.^.^.^.^.^.^.^.^.^.^.^.^.^.^.^.^.^.^.^.^.^.^.^.^.^.^.^.^.^.^.",
"^.^.^.^.^.^.^.^.^.^.^.^.^.^.^.^.^.^.^.^.^.^.^.^.^.^.^.^.^.^.^.^.^.^.^.^.^.^.^.^.^.^.^.^.^.^.^.^.^.^.^.^.^.^.^.^.^.^.^.^.^.^.^.^.",
"^.D.g.g.4.S @.D ^.D.4.T ;.p t 5 ^.D.f.] C t t * ^.D.f.] J J t ; ^.D.g.D.4.J ;.A V.D.4.T +.t t 5 h.D.f.] t t t * ^.D.f.] J J t ; ",
"^.+.J H u 1 p A ^.+.p p i q q 6 ^.T p y i y 1 % ^.+.i i i p 1 % ^.+.p J u 1 p C Z.@.p p p q q 8 ^.Y u u i q 1 = ^.@.i i p p 1 = ",
"^.J p p y 1 p 8 ^.o.1 1 y u p B ^.} p p p p u ; ^.+.p p i p q ; ^.J p p y 1 u - N.+.1 1 y u p B ^.} p p p p u ; ^.+.u p p p q = ",
"^.J q y y p p ; ^.I y y u i i 9 ^.I y y i H p ; ^.Y y y p i y = m p q q y u p ; >.I u u u p p 9 ^.I y y p i p ; &.T y y p i y @ ",
"^.6 @ @ - 7 7 8 ^.8 9 7 9 9 6 & ^.- = @ - 7 7 % j 6 = = - 7 = $ ^.9 - # - - - 8 b 9 9 9 9 9 7 $ ^.- - = - 9 - % j 8 @ @ - 9 - + ",
"^.X . . o . X j ^.. . . . . . o ^.o . X . . . . ^.o . . o . . . ^.. . . . . . j ^.. . . . . . . ^.. . . . . . o ^.o . . o . . . ",
"^.^.^.^.^.^.^.^.^.^.^.^.^.^.^.^.^.^.^.^.^.^.^.^.^.^.^.^.^.^.^.^.^.^.^.^.^.^.^.^.^.^.^.^.^.^.^.^.^.^.^.^.^.^.^.^.^.^.^.^.^.^.^.^.",
"G D G Z ^.I.t.2.G D A Z ^.I.G.D.G C D Z ^.I.I.0.G.2.G Q ^.I.E.w.W W G Z ^.E.n.t.~ ! ! $.^.E.E.I.! W D Z ^.I.G.2.G.2.r B ^.I.G.-.",
"y y p : ^.8.^ I q u p : ^.9.` ` p i u e ^.9.Y i { H p - ^.4.^ H y q p : ^.9.I I y y p 9 ^.9.` ` i p y e ^.4.I i ` I p - ^.4.^ I ",
"p q u ; ^.p y p q y p ; ^.^ y y y J y - ^.^ e p H u p = ^.I y i u 1 p ; ^.p y p y y J ; ^.R y y y i y - ^.R q u p y p ; ^.I y i ",
"i y y ; ^.1 q i u u p 8 ^.u 1 1 y p u = ^.J i u u y p - ^.I p u i y u = ^., y i u y p ; ^.u y q y i u = ^.p i p u y p - ^.I u u ",
"e < < ; ^.< q t t e 0 ; ^.0 e e e t e ; ^.e t < < e e 7 ^.[ e < e < < ; ^.< q e e e 0 * ^.w e e e e e * ^.e t 0 < t e w ^.[ q < ",
"$ $ $ 3 ^.$ $ $ $ $ $ 3 ^.& & $ & & & X ^.$ $ $ $ $ $ X ^.$ $ O $ $ $ X ^.& & 4 & $ $ 3 ^.$ & 4 & & & X ^.4 $ $ $ & & 4 ^.4 & & ",
"G D G Z ^.I.t.2.G D A Z ^.I.G.D.G C D Z ^.I.I.0.G.2.G Q ^.I.E.w.W W G Z ^.E.n.t.~ ! ! $.^.E.E.I.! W D Z ^.I.G.2.G.2.r B ^.I.G.-.",
"y y p : ^.8.^ I q u p : ^.9.` ` p i u e ^.9.Y i { H p - ^.4.^ H y q p : ^.9.I I y y p 9 ^.9.` ` i p y e ^.4.I i ` I p - ^.4.^ I ",
"p q u ; ^.p y p q y p ; ^.^ y y y J y - ^.^ e p H u p = ^.I y i u 1 p ; ^.p y p y y J ; ^.R y y y i y - ^.R q u p y p ; ^.I y i ",
"i y y ; ^.1 q i u u p 8 ^.u 1 1 y p u = ^.J i u u y p - ^.I p u i y u = ^., y i u y p ; ^.u y q y i u = ^.p i p u y p - ^.I u u ",
"e < < ; ^.< q t t e 0 ; ^.0 e e e t e ; ^.e t < < e e 7 ^.[ e < e < < ; ^.< q e e e 0 * ^.w e e e e e * ^.e t 0 < t e w ^.[ q < ",
"$ $ $ 3 ^.$ $ $ $ $ $ 3 ^.& & $ & & & X ^.$ $ $ $ $ $ X ^.$ $ O $ $ $ X ^.& & 4 & $ $ 3 ^.$ & 4 & & & X ^.4 $ $ $ & & 4 ^.4 & & ",
};
